<svg xmlns="http://www.w3.org/2000/svg" width="1080" height="540" viewBox="0 0 1080 540">
  <style>
    .title { font: 700 24px Arial, sans-serif; fill: #111827; }
    .subtitle { font: 14px Arial, sans-serif; fill: #4b5563; }
    .axis { stroke: #111827; stroke-width: 1.4; }
    .tick { font: 12px Arial, sans-serif; fill: #4b5563; }
    .label { font: 13px Arial, sans-serif; fill: #111827; }
    .bartext { font: 12px Arial, sans-serif; fill: #ffffff; font-weight: 700; }
  </style>
  <rect width="100%" height="100%" fill="#ffffff"/>
  <text x="86" y="34" class="title">Sentinel Parallel Scan Throughput</text>
  <text x="86" y="55" class="subtitle">Average files/sec across repeated scans; process mode bypasses the GIL for CPU-heavy hash/entropy work.</text>
  <line x1="86" y1="444.00" x2="1038" y2="444.00" stroke="#e5e7eb"/><text x="76" y="448.00" text-anchor="end" class="tick">0</text><line x1="86" y1="369.20" x2="1038" y2="369.20" stroke="#e5e7eb"/><text x="76" y="373.20" text-anchor="end" class="tick">7600</text><line x1="86" y1="294.40" x2="1038" y2="294.40" stroke="#e5e7eb"/><text x="76" y="298.40" text-anchor="end" class="tick">15201</text><line x1="86" y1="219.60" x2="1038" y2="219.60" stroke="#e5e7eb"/><text x="76" y="223.60" text-anchor="end" class="tick">22801</text><line x1="86" y1="144.80" x2="1038" y2="144.80" stroke="#e5e7eb"/><text x="76" y="148.80" text-anchor="end" class="tick">30401</text><line x1="86" y1="70.00" x2="1038" y2="70.00" stroke="#e5e7eb"/><text x="76" y="74.00" text-anchor="end" class="tick">38001</text>
  <line x1="86" y1="70" x2="86" y2="444" class="axis"/>
  <line x1="86" y1="444" x2="1038" y2="444" class="axis"/>
  <rect x="86.00" y="354.91" width="105.00" height="89.09" fill="#dc2626" rx="4"/><rect x="207.00" y="294.27" width="105.00" height="149.73" fill="#16a34a" rx="4"/><rect x="328.00" y="179.49" width="105.00" height="264.51" fill="#16a34a" rx="4"/><rect x="449.00" y="118.78" width="105.00" height="325.22" fill="#16a34a" rx="4"/><rect x="570.00" y="354.84" width="105.00" height="89.16" fill="#2563eb" rx="4"/><rect x="691.00" y="365.92" width="105.00" height="78.08" fill="#f97316" rx="4"/><rect x="812.00" y="376.74" width="105.00" height="67.26" fill="#f97316" rx="4"/><rect x="933.00" y="380.10" width="105.00" height="63.90" fill="#f97316" rx="4"/>
  <text x="138.50" y="468" text-anchor="middle" class="tick">process</text><text x="138.50" y="486" text-anchor="middle" class="tick">1w</text><text x="138.50" y="346.91" text-anchor="middle" class="label">9052</text><text x="138.50" y="372.91" text-anchor="middle" class="bartext">1.00x</text><text x="259.50" y="468" text-anchor="middle" class="tick">process</text><text x="259.50" y="486" text-anchor="middle" class="tick">2w</text><text x="259.50" y="286.27" text-anchor="middle" class="label">15213</text><text x="259.50" y="312.27" text-anchor="middle" class="bartext">1.68x</text><text x="380.50" y="468" text-anchor="middle" class="tick">process</text><text x="380.50" y="486" text-anchor="middle" class="tick">4w</text><text x="380.50" y="171.49" text-anchor="middle" class="label">26877</text><text x="380.50" y="197.49" text-anchor="middle" class="bartext">2.97x</text><text x="501.50" y="468" text-anchor="middle" class="tick">process</text><text x="501.50" y="486" text-anchor="middle" class="tick">8w</text><text x="501.50" y="110.78" text-anchor="middle" class="label">33045</text><text x="501.50" y="136.78" text-anchor="middle" class="bartext">3.65x</text><text x="622.50" y="468" text-anchor="middle" class="tick">thread</text><text x="622.50" y="486" text-anchor="middle" class="tick">1w</text><text x="622.50" y="346.84" text-anchor="middle" class="label">9059</text><text x="622.50" y="372.84" text-anchor="middle" class="bartext">1.00x</text><text x="743.50" y="468" text-anchor="middle" class="tick">thread</text><text x="743.50" y="486" text-anchor="middle" class="tick">2w</text><text x="743.50" y="357.92" text-anchor="middle" class="label">7934</text><text x="743.50" y="383.92" text-anchor="middle" class="bartext">0.88x</text><text x="864.50" y="468" text-anchor="middle" class="tick">thread</text><text x="864.50" y="486" text-anchor="middle" class="tick">4w</text><text x="864.50" y="368.74" text-anchor="middle" class="label">6835</text><text x="864.50" y="394.74" text-anchor="middle" class="bartext">0.75x</text><text x="985.50" y="468" text-anchor="middle" class="tick">thread</text><text x="985.50" y="486" text-anchor="middle" class="tick">8w</text><text x="985.50" y="372.10" text-anchor="middle" class="label">6493</text><text x="985.50" y="398.10" text-anchor="middle" class="bartext">0.72x</text>
  <text x="540.0" y="516" text-anchor="middle" class="label">Executor and workers</text>
  <text x="22" y="270.0" text-anchor="middle" transform="rotate(-90 22 270.0)" class="label">Average throughput (files/sec)</text>
</svg>
